<?xml version="1.0" standalone="no"?>
<!DOCTYPE svg PUBLIC "-//W3C//DTD SVG 20010904//EN"
 "http://www.w3.org/TR/2001/REC-SVG-20010904/DTD/svg10.dtd">
<svg version="1.0" xmlns="http://www.w3.org/2000/svg"
 width="200.000000pt" height="200.000000pt" viewBox="0 0 200.000000 200.000000"
 preserveAspectRatio="xMidYMid meet">

<g transform="translate(0.000000,200.000000) scale(0.100000,-0.100000)"
fill="#5182FF" stroke="none">
<path d="M920 1570 c-58 -38 -108 -70 -112 -70 -5 0 -8 29 -8 65 l0 65 -135 0
-135 0 0 -157 0 -158 -87 -55 c-48 -30 -91 -58 -96 -61 -4 -3 5 -27 21 -52
l29 -47 317 205 c174 113 319 205 321 205 2 0 147 -92 322 -205 l317 -205 29
45 c16 25 28 47 26 49 -16 15 -689 446 -696 445 -4 0 -55 -31 -113 -69z m-230
-98 c0 -48 -12 -72 -37 -72 -9 0 -13 17 -13 60 0 57 1 60 25 60 23 0 25 -3 25
-48z"/>
<path d="M912 1199 c-130 -19 -243 -81 -297 -162 -29 -44 -32 -46 -81 -46 -55
-1 -84 -21 -84 -58 0 -21 29 -53 47 -53 6 0 1 -19 -11 -42 -13 -28 -22 -68
-24 -116 -4 -65 -1 -80 26 -135 25 -50 31 -78 34 -145 3 -82 4 -84 40 -118 36
-33 40 -34 119 -34 79 0 82 1 115 34 22 22 35 47 40 75 l7 41 192 0 192 0 7
-41 c5 -28 18 -53 40 -75 33 -33 36 -34 115 -34 79 0 83 1 119 34 37 34 37 35
41 123 2 63 8 95 21 113 47 69 55 197 16 273 -15 30 -19 47 -11 47 18 0 45 34
45 57 0 32 -32 53 -82 53 -44 0 -48 3 -82 49 -97 132 -307 194 -544 160z m311
-129 c53 -16 78 -31 115 -68 l47 -47 -178 -3 c-98 -1 -255 -1 -350 0 l-171 3
32 36 c36 42 125 84 203 98 79 14 223 5 302 -19z m254 -269 c17 -25 23 -48 23
-90 0 -66 -23 -111 -72 -141 -31 -19 -51 -20 -393 -20 -342 0 -362 1 -393 20
-82 50 -99 178 -34 253 14 16 45 17 431 15 l415 -3 23 -34z m-774 -361 c20 0
27 -5 27 -20 0 -17 -7 -20 -50 -20 -47 0 -50 1 -50 26 0 22 3 25 23 20 12 -3
34 -6 50 -6z m737 -16 c0 -24 -2 -25 -47 -22 -35 2 -49 7 -51 20 -3 13 6 18
40 21 24 2 46 4 51 5 4 1 7 -9 7 -24z"/>
<path d="M672 747 c-48 -50 -15 -127 53 -127 45 0 75 29 75 73 0 68 -83 103
-128 54z"/>
<path d="M1302 763 c-21 -8 -43 -61 -36 -88 14 -57 97 -75 133 -29 28 35 26
69 -4 99 -23 24 -61 31 -93 18z"/>
</g>
</svg>
