<?xml version="1.0" standalone="no"?>
<!DOCTYPE svg PUBLIC "-//W3C//DTD SVG 20010904//EN"
 "http://www.w3.org/TR/2001/REC-SVG-20010904/DTD/svg10.dtd">
<svg version="1.0" xmlns="http://www.w3.org/2000/svg"
 width="612.000000pt" height="612.000000pt" viewBox="0 0 612.000000 612.000000"
 preserveAspectRatio="xMidYMid meet">

<g transform="translate(0.000000,612.000000) scale(0.100000,-0.100000)"
fill="#5182FF" stroke="none">
<path d="M2500 5231 c-58 -15 -122 -35 -142 -44 -60 -25 -66 -48 -60 -237 4
-159 3 -166 -18 -193 -12 -15 -47 -41 -79 -56 -31 -16 -90 -50 -131 -75 -41
-25 -82 -46 -92 -46 -25 0 -80 29 -208 108 -140 87 -154 87 -248 3 -120 -107
-167 -174 -155 -222 4 -13 44 -85 90 -160 46 -75 83 -147 83 -159 0 -24 -18
-62 -56 -117 -14 -21 -41 -68 -60 -104 -18 -37 -46 -77 -61 -89 -27 -22 -33
-22 -193 -17 -183 6 -207 0 -235 -53 -25 -49 -76 -262 -70 -291 9 -38 29 -54
183 -140 86 -47 142 -85 149 -100 19 -37 18 -338 -2 -365 -8 -12 -77 -56 -153
-98 -76 -42 -146 -84 -154 -93 -29 -33 -30 -61 -4 -163 61 -234 59 -233 288
-223 181 7 189 4 234 -74 15 -27 52 -90 82 -141 42 -72 53 -99 49 -120 -3 -16
-38 -82 -78 -148 -86 -143 -101 -176 -93 -209 8 -33 186 -213 228 -230 18 -8
43 -11 56 -8 13 3 81 42 151 85 70 43 141 81 157 84 31 6 63 -7 129 -52 21
-14 68 -41 104 -60 37 -18 77 -46 89 -61 22 -27 22 -34 17 -193 -5 -182 0
-208 52 -234 48 -25 263 -77 292 -71 38 9 51 26 139 182 48 86 86 143 101 150
37 19 338 18 365 -1 11 -8 54 -75 94 -148 82 -149 101 -174 139 -183 29 -6
243 45 291 70 52 27 59 53 53 221 -4 103 -2 162 6 185 l12 33 -163 163 -163
163 -62 -20 c-202 -63 -457 -72 -689 -25 -253 52 -512 190 -706 376 -211 203
-369 509 -419 814 -6 39 -12 135 -11 215 0 235 41 419 142 625 136 280 345
497 620 643 553 294 1240 192 1681 -250 244 -244 387 -550 419 -898 15 -164
-4 -366 -50 -513 l-19 -62 152 -156 c84 -86 158 -159 165 -162 7 -4 23 -2 35
4 14 8 72 10 181 7 225 -8 223 -9 276 199 33 126 32 159 -3 190 -20 18 -130
82 -220 128 -21 11 -50 30 -65 42 l-27 21 -3 172 c-3 138 0 176 11 194 9 12
78 57 155 99 142 79 165 96 176 134 8 24 -45 247 -69 294 -27 52 -52 57 -235
52 -159 -5 -166 -5 -193 17 -15 12 -39 45 -53 73 -15 29 -49 89 -76 134 -41
66 -49 89 -45 112 4 16 42 88 86 161 44 72 83 140 86 150 3 10 -1 34 -9 54
-17 40 -188 214 -225 228 -34 12 -56 3 -206 -86 -71 -43 -142 -80 -157 -83
-22 -4 -48 7 -120 49 -51 31 -112 65 -135 76 -22 12 -51 34 -63 49 -22 27 -22
33 -16 186 6 180 -1 215 -53 241 -49 26 -262 77 -292 71 -33 -8 -57 -34 -99
-110 -81 -147 -123 -216 -140 -225 -10 -6 -93 -10 -185 -10 -199 0 -180 -12
-283 176 -39 71 -79 138 -90 147 -31 28 -72 28 -182 -2z"/>
<path d="M2900 4067 c-53 -10 -66 -16 -68 -32 -2 -15 73 -95 278 -300 155
-154 288 -292 296 -307 22 -42 17 -72 -25 -156 -114 -224 -318 -428 -542 -538
-76 -38 -122 -42 -159 -16 -14 9 -143 135 -286 278 -265 266 -308 304 -324
288 -13 -14 -30 -145 -30 -231 1 -321 151 -620 411 -820 125 -96 311 -172 476
-194 82 -11 119 -10 359 7 156 11 129 32 698 -536 270 -270 507 -501 525 -515
51 -37 137 -66 212 -72 127 -11 250 37 344 132 105 106 150 242 127 380 -22
136 -20 134 -572 690 -329 331 -513 524 -526 550 -15 31 -19 60 -17 130 0 50
2 158 4 240 3 166 -7 229 -61 377 -49 135 -118 238 -239 358 -148 146 -277
219 -476 271 -98 25 -310 34 -405 16z"/>
</g>
</svg>
