<?xml version="1.0" standalone="no"?>
<!DOCTYPE svg PUBLIC "-//W3C//DTD SVG 20010904//EN"
 "http://www.w3.org/TR/2001/REC-SVG-20010904/DTD/svg10.dtd">
<svg version="1.0" xmlns="http://www.w3.org/2000/svg"
 width="513.000000pt" height="241.000000pt" viewBox="0 0 513.000000 241.000000"
 preserveAspectRatio="xMidYMid meet">

<g transform="translate(0.000000,241.000000) scale(0.100000,-0.100000)"
fill="#000000" stroke="none">
<path d="M1028 2355 c-113 -16 -118 -19 -118 -53 0 -16 -3 -50 -6 -74 l-6 -46
-72 -27 c-39 -15 -90 -38 -114 -51 l-42 -23 -52 45 c-28 24 -59 44 -68 44 -15
0 -158 -110 -172 -133 -3 -6 8 -40 26 -75 l33 -65 -56 -74 -56 -74 -45 7 c-25
4 -60 8 -79 8 -34 1 -35 -1 -72 -84 -51 -116 -51 -122 17 -167 52 -34 56 -40
50 -68 -20 -111 -26 -154 -26 -187 0 -36 -1 -37 -66 -58 -36 -12 -68 -29 -71
-36 -9 -25 19 -204 34 -220 10 -9 36 -14 79 -14 37 0 64 -4 64 -10 0 -23 62
-169 94 -223 l34 -56 -39 -52 c-21 -29 -39 -59 -39 -66 0 -13 90 -118 132
-156 20 -17 23 -16 84 18 l63 35 54 -41 55 -40 -14 -57 c-7 -31 -13 -63 -14
-70 0 -12 146 -86 195 -98 19 -5 29 4 61 50 36 52 41 56 69 51 89 -18 145 -25
186 -25 l45 0 17 -53 c28 -90 26 -89 145 -72 57 8 108 17 113 20 5 4 9 23 9
44 0 82 8 96 63 116 29 10 82 33 119 51 l66 33 49 -39 c26 -22 54 -40 63 -40
15 0 146 99 167 127 10 12 7 25 -13 64 -17 34 -20 49 -12 50 7 0 258 17 558
38 l545 37 -627 8 -627 8 -60 -48 c-168 -136 -318 -193 -532 -201 -257 -10
-472 73 -652 253 -158 158 -241 344 -254 566 -20 366 176 693 509 847 133 62
201 76 368 75 165 0 225 -13 357 -74 99 -46 163 -88 224 -147 l46 -45 112 36
c62 19 128 38 147 42 18 3 34 10 34 15 0 10 -97 121 -132 151 -19 17 -23 17
-87 -19 l-67 -36 -52 37 c-56 41 -55 35 -31 126 5 19 9 41 9 48 0 13 -143 85
-193 97 -21 6 -30 -2 -68 -55 -34 -48 -47 -60 -63 -56 -26 6 -161 25 -200 29
-26 2 -32 8 -50 62 -12 33 -25 66 -29 73 -9 14 -4 14 -119 -3z"/>
<path d="M792 1913 c-100 -58 -190 -136 -249 -217 -44 -60 -88 -135 -81 -141
2 -1 17 -6 34 -9 30 -7 32 -5 54 49 53 130 163 258 281 328 35 20 59 37 53 37
-5 0 -47 -21 -92 -47z"/>
<path d="M2470 1884 c-14 -2 -65 -9 -115 -15 -110 -13 -335 -70 -550 -138 -88
-28 -191 -58 -229 -68 l-68 -16 148 -52 c82 -29 166 -59 188 -68 21 -10 40
-17 41 -17 1 0 5 13 8 30 10 49 73 107 161 150 158 75 350 105 624 97 202 -5
311 -23 462 -73 132 -44 227 -96 306 -167 l61 -56 89 7 89 7 -75 53 c-210 150
-447 254 -690 303 -91 18 -389 34 -450 23z"/>
<path d="M1043 1663 c-29 -2 -53 -9 -53 -14 0 -5 18 -34 41 -64 l40 -53 -24
-39 c-35 -56 -64 -124 -78 -186 -17 -79 -7 -237 20 -307 22 -57 80 -165 86
-158 1 1 -6 48 -16 103 -29 161 -22 289 21 375 29 56 101 117 161 134 112 34
243 18 480 -59 329 -106 679 -166 949 -164 l95 1 -95 13 c-224 31 -446 96
-770 225 -256 102 -383 145 -505 169 -104 21 -262 32 -352 24z"/>
<path d="M422 1468 c-26 -79 -42 -159 -42 -204 0 -34 1 -35 30 -30 17 3 43 8
59 12 l29 5 4 112 c3 62 8 119 12 129 7 16 5 17 -56 34 -12 4 -21 -9 -36 -58z"/>
<path d="M3840 1494 c-30 -2 -127 -8 -215 -14 -88 -6 -302 -25 -475 -42 -223
-22 -372 -31 -508 -32 -192 -1 -193 -1 -154 -18 167 -74 431 -83 1032 -38 754
56 1080 43 1308 -52 68 -28 192 -109 192 -125 1 -5 12 -21 26 -38 l24 -30 -15
44 c-60 173 -239 275 -575 326 -101 15 -513 28 -640 19z"/>
<path d="M1389 1222 c-109 -37 -199 -121 -234 -221 -23 -69 -19 -94 7 -41 30
60 96 123 166 157 51 25 68 28 157 28 87 0 107 -3 155 -26 127 -61 201 -168
202 -295 l2 -69 14 35 c8 19 15 67 15 105 1 137 -89 265 -221 316 -79 30 -190
35 -263 11z"/>
<path d="M4445 1227 c-142 -48 -237 -149 -259 -277 l-7 -35 24 43 c33 63 102
128 166 160 50 24 67 27 156 27 87 0 107 -3 157 -27 126 -59 201 -167 202
-291 l1 -68 15 33 c8 19 14 64 14 108 1 90 -30 164 -95 229 -66 66 -152 102
-251 107 -53 3 -98 -1 -123 -9z"/>
<path d="M445 1213 c-75 -15 -68 -7 -62 -86 6 -75 32 -186 46 -200 5 -5 42 5
83 23 l75 31 -33 82 c-19 45 -37 99 -40 120 -7 38 -15 42 -69 30z"/>
<path d="M2250 989 c-83 -10 -237 -46 -260 -61 -12 -7 -10 -8 5 -4 45 12 207
26 301 26 130 0 345 -21 665 -64 449 -61 643 -71 848 -40 94 14 267 61 258 70
-2 2 -37 -4 -78 -13 -123 -28 -444 -23 -694 11 -519 71 -573 76 -770 81 -110
2 -234 0 -275 -6z"/>
<path d="M527 909 l-77 -39 24 -48 c29 -57 101 -155 148 -200 l35 -33 72 81
73 81 -78 73 c-44 40 -85 85 -93 100 -8 14 -17 26 -20 26 -3 -1 -41 -19 -84
-41z"/>
<path d="M782 638 l-71 -83 27 -22 c69 -58 273 -133 360 -133 l34 0 -6 88
c-11 140 -15 151 -45 157 -26 6 -182 56 -212 69 -13 6 -34 -13 -87 -76z"/>
<path d="M1386 669 c-33 -11 -90 -22 -127 -25 -63 -6 -68 -9 -64 -28 2 -12 9
-67 16 -123 l11 -102 47 5 c113 14 296 76 335 114 10 10 -132 181 -148 179 -6
-1 -38 -10 -70 -20z"/>
</g>
</svg>
